<?xml version="1.0"?><svg width="257.236" height="307" xmlns="http://www.w3.org/2000/svg">
 <title>plane silhouette grey</title>

 <g>
  <title>Layer 1</title>
  <g fill="#000000" id="Layer_1">
   <path fill="#bfbfbf" fill-rule="evenodd" id="path7" d="m256.122986,219.001007c0,0 0.383026,1.654999 0.340027,3.395996c-0.041016,1.705994 -0.51001,5.43399 -0.51001,4.584991c0,-0.848999 -1.527008,-1.909988 -1.527008,-1.909988l-0.212997,1.485001l-1.188004,0.042999l-0.041992,-2.378006l-36.041,-16.343002c0,0 -0.042007,-2.037994 -0.212006,-2.080002c-0.041992,2.037003 0.085007,3.396011 -0.169998,3.565002c-0.339005,-0.126999 -39.886993,-17.688004 -40.751999,-18.168991c-0.382004,-0.212006 -0.169998,-1.952011 -0.169998,-1.952011l-10.188004,-1.528l-0.041992,1.358002c0,0 -21.438004,-3.013992 -22.031998,-2.632004c-0.594009,0.382004 0.552994,23.432999 -0.46701,39.055008c-1.018997,15.621002 -2.759003,24.026001 -3.522995,27.039993c-0.712997,2.813004 -0.126999,3.438004 1.231003,4.626999c1.358002,1.188995 28.653,21.395996 30.945999,23.136017c2.250992,1.708984 2.292999,2.48999 2.292999,3.52298c0,1.358002 0.041992,10.315002 0.041992,10.315002l-37.992996,-9.253998c0,0 -0.212997,3.777008 -0.763992,4.32901c-0.553009,0.553009 -1.698013,0.339996 -1.698013,0.339996c0,0 -0.764999,7.854004 -1.187988,8.363007c-0.425003,0.509003 -1.146011,0.763977 -1.146011,0.763977c0,0 -1.694,8.09903 -2.472992,8.311005c0,0.003021 0,0.007996 0,0.01001c-0.005997,0 -0.012009,-0.003998 -0.016006,-0.005005c-0.005997,0.001007 -0.011993,0.005005 -0.015991,0.005005c0,-0.002014 0,-0.006989 0,-0.01001c-0.779007,-0.211975 -2.474007,-8.311005 -2.474007,-8.311005c0,0 -0.722,-0.254974 -1.145996,-0.763977c-0.424004,-0.51001 -1.188004,-8.363007 -1.188004,-8.363007c0,0 -1.145996,0.213013 -1.697998,-0.339996c-0.552002,-0.552002 -0.764,-4.32901 -0.764,-4.32901l-37.992996,9.253998c0,0 0.042,-8.957001 0.042,-10.315002c0,-1.03299 0.042,-1.813995 2.292,-3.52298c2.292,-1.740021 29.587997,-21.947021 30.945999,-23.136017c1.357994,-1.188995 1.944,-1.813995 1.230995,-4.626999c-0.764,-3.013992 -2.503998,-11.418991 -3.522995,-27.039993c-1.019005,-15.622009 0.126999,-38.673004 -0.467003,-39.055008c-0.594002,-0.381989 -22.031998,2.632004 -22.031998,2.632004l-0.042,-1.358002l-10.188004,1.528c0,0 0.211998,1.740005 -0.169998,1.952011c-0.864998,0.480988 -40.413002,18.041992 -40.751999,18.168991c-0.255001,-0.169998 -0.127003,-1.528 -0.170002,-3.565002c-0.169998,0.042007 -0.211998,2.080002 -0.211998,2.080002l-36.042001,16.343002l-0.042,2.378006l-1.188,-0.042999l-0.212,-1.485001c0,0 -1.528,1.061996 -1.528,1.909988c0,0.848007 -0.468,-2.878998 -0.509,-4.584991c-0.042,-1.740005 0.34,-3.395996 0.34,-3.395996c0,0 -1.231,0.381989 -1.104,-1.231003c0.082,-1.029007 3.269,-5.730011 3.269,-5.730011c0,0 0.226,-0.704987 0.187,-1.202988c-0.045,-0.57901 0.661,-0.952011 1.034,-1.283005c0.216,-0.190994 -0.023,-1.240997 -0.023,-1.240997c0,0 11.942999,-10.240997 32.635998,-26.285004c20.659,-16.018005 45.110001,-35.658005 45.110001,-35.658005c0,0 0,-1.131989 -0.225998,-2.716995c-0.226997,-1.584 -0.396004,-2.263992 -0.396004,-2.263992c0,0 -1.244995,-0.396011 -1.584999,-1.415009c-0.252998,-0.759995 -0.904999,-6.283005 -0.792,-11.263992c0.112999,-4.98101 0.396004,-7.584007 0.736,-8.377007c0.339005,-0.792 1.487,-1.142998 2.943001,-1.358002c1.528,-0.225998 7.458,-0.085999 8.886002,0.112999c1.356003,0.189003 2.208,0.396004 2.433998,2.320999c0.225998,1.924004 0.283005,8.546005 0.112999,11.263c-0.120995,1.934006 -0.623001,4.132004 -0.339996,4.24501c0.282997,0.112991 5.207001,-4.698013 7.923996,-6.622009c2.717003,-1.925003 7.358002,-5.943001 7.924004,-7.187996c0.566002,-1.245003 0.623001,-1.415001 0.961998,-0.283005c0.339005,1.132004 0.282997,2.264 -0.169998,3.056c-0.453003,0.792 -0.679001,1.812004 -0.226997,2.264c0.169998,0.169998 1.528,-0.961998 1.867996,-1.641998c0.339996,-0.679001 0,-1.980995 0.226997,-2.546997c0.227005,-0.566002 1.112999,-2.208 1.075005,-3.566002c-0.226006,-8.094002 -0.500999,-20.206001 -0.566002,-46.695c-0.069,-28.346001 0.211998,-36.813999 3.792,-51.959c3.25,-13.748001 5.692001,-16.467 6.942001,-18.450001c1.155998,-1.833 3.764999,-3.257 4.856995,-3.282c0,0 0,-0.002 0,-0.002c0.003998,0 0.01001,0.001 0.016006,0.001c0.003998,0 0.009995,-0.001 0.015991,-0.001c0,0 0,0.002 0,0.002c1.091003,0.025 3.699005,1.45 4.855011,3.282c1.25,1.982 3.690994,4.702 6.942001,18.450001c3.580002,15.145 3.860992,23.612999 3.791992,51.959c-0.063995,26.488998 -0.339996,38.601997 -0.565994,46.695c-0.037003,1.358002 0.849991,3 1.075989,3.566002c0.226013,0.566002 -0.112991,1.867996 0.227005,2.546997c0.339005,0.679001 1.697006,1.811996 1.867004,1.641998c0.453003,-0.452995 0.227005,-1.472 -0.227005,-2.264c-0.453995,-0.792 -0.509995,-1.923996 -0.169998,-3.056c0.339996,-1.131996 0.395996,-0.961998 0.962997,0.283005c0.565002,1.244995 5.207001,5.264 7.924011,7.187996c2.716995,1.923996 7.640991,6.735001 7.923996,6.622009c0.28299,-0.113007 -0.219009,-2.311005 -0.339996,-4.24501c-0.170013,-2.716995 -0.113007,-9.338997 0.112991,-11.263c0.225998,-1.923996 1.078003,-2.130997 2.434006,-2.320999c1.429001,-0.199997 7.358002,-0.338997 8.886993,-0.112999c1.455002,0.216003 2.604004,0.566002 2.943008,1.358002c0.339996,0.792 0.623001,3.395996 0.735992,8.377007c0.112,4.980988 -0.539993,10.503998 -0.792999,11.263992c-0.339996,1.018997 -1.584991,1.415009 -1.584991,1.415009c0,0 -0.170013,0.678986 -0.396011,2.263992c-0.22699,1.585007 -0.22699,2.716995 -0.22699,2.716995c0,0 24.450989,19.641006 45.108994,35.658005c20.692993,16.044006 32.636993,26.285004 32.636993,26.285004c0,0 -0.23999,1.050003 -0.022995,1.240997c0.373001,0.330994 1.078995,0.703995 1.033005,1.283005c-0.039001,0.498001 0.186996,1.202988 0.186996,1.202988c0,0 3.188004,4.701004 3.270004,5.730011c0.125,1.612991 -1.106018,1.231003 -1.106018,1.231003zm-247.586986,-11.908005l-2.393,1.834l0.207,0.270004l2.414,-1.850006l-0.228,-0.253998zm4.799,-3.678009l-4.529,3.471008l0.227,0.253998l4.51,-3.457001l-0.208,-0.268005zm4.808999,-3.685989l-4.539,3.478989l0.208,0.269012l4.511,-3.457001l-0.18,-0.291zm6.059,-4.643005l-5.787998,4.436005l0.179998,0.291l5.808001,-4.452011l-0.200001,-0.274994zm5.587002,-4.281006l-5.318001,4.074005l0.200001,0.275009l5.323,-4.080002l-0.205,-0.269012zm5.647999,-4.327988l-5.378,4.121002l0.206001,0.270996l5.367998,-4.113998l-0.195999,-0.278zm5.84,-4.477005l-5.570999,4.270004l0.195999,0.276993l5.606998,-4.296997l-0.231998,-0.25zm5.894001,-4.516998l-5.623001,4.309998l0.230999,0.25l5.585003,-4.279999l-0.193001,-0.279999zm5.844997,-4.479004l-5.574997,4.272003l0.192997,0.279999l5.556004,-4.259003l-0.174004,-0.292999zm5.802002,-4.446991l-5.531002,4.237991l0.174004,0.294998l5.550999,-4.253998l-0.194,-0.278992zm5.578003,-4.274002l-5.308002,4.065994l0.194,0.279007l5.316998,-4.074005l-0.202995,-0.270996zm5.571999,-4.270004l-5.302002,4.063004l0.204002,0.270996l5.272995,-4.041l-0.174995,-0.292999zm6.564995,-5.033005l-6.293999,4.824005l0.175003,0.294006l6.264999,-4.80101l-0.146004,-0.317001zm1.717003,-1.315002l-1.440002,1.104004l0.145004,0.31601l1.429001,-1.096008l-0.134003,-0.324005zm5.377998,-4.120987l-5.098,3.906998l0.134003,0.324997l5.170998,-3.962997l-0.207001,-0.268997zm89.977997,0l-0.207001,0.269989l5.172012,3.962997l0.132996,-0.324997l-5.098007,-3.90799zm5.376999,4.120987l-0.132996,0.325012l1.430008,1.095993l0.144989,-0.315994l-1.442001,-1.105011zm1.718002,1.315002l-0.145996,0.317001l6.266006,4.80101l0.173996,-0.294006l-6.294006,-4.824005zm6.565002,5.033005l-0.175003,0.294006l5.27301,4.041l0.203995,-0.271011l-5.302002,-4.063995zm5.572006,4.270004l-0.20401,0.270996l5.317001,4.074005l0.193008,-0.279007l-5.306,-4.065994zm5.578003,4.274002l-0.194,0.278992l5.550995,4.253998l0.173996,-0.294998l-5.530991,-4.237991zm5.800995,4.446991l-0.173996,0.294006l5.556992,4.259003l0.193008,-0.280014l-5.576004,-4.272995zm5.845993,4.479004l-0.192993,0.278992l5.584,4.280014l0.231995,-0.25l-5.623001,-4.309006zm5.893997,4.516998l-0.230988,0.25l5.606995,4.296997l0.195007,-0.276993l-5.571014,-4.270004zm5.840012,4.477005l-0.195007,0.276993l5.367996,4.113998l0.205002,-0.270996l-5.377991,-4.119995zm5.647995,4.327988l-0.205002,0.270004l5.322998,4.080002l0.199005,-0.274994l-5.317001,-4.075012zm5.587006,4.281006l-0.199005,0.274002l5.809006,4.451996l0.179993,-0.291l-5.789993,-4.434998zm6.05899,4.643005l-0.179993,0.289993l4.511002,3.457001l0.207993,-0.268997l-4.539001,-3.477997zm4.809006,3.685989l-0.208008,0.268005l4.51001,3.457001l0.227997,-0.253998l-4.529999,-3.471008zm4.800003,3.678009l-0.227997,0.253998l2.413986,1.850006l0.206009,-0.270004l-2.391998,-1.834z"/>
  </g>
 </g>
</svg>